<svg width="71" height="77" viewBox="0 0 71 77" fill="none" xmlns="http://www.w3.org/2000/svg">
<path fill-rule="evenodd" clip-rule="evenodd" d="M1 13.3529L40.3464 1V75.1176H1V13.3529Z" stroke="#EF7F1A" stroke-width="1.83007" stroke-miterlimit="22.9256" stroke-linecap="round" stroke-linejoin="round"/>
<path fill-rule="evenodd" clip-rule="evenodd" d="M39.8889 21.5881H69.1699V75.1175H39.8889V21.5881Z" stroke="#EF7F1A" stroke-width="1.83007" stroke-miterlimit="22.9256" stroke-linecap="round" stroke-linejoin="round"/>
<path d="M65.0523 8.77783H40.3464V21.5883H65.0523V8.77783Z" stroke="#EF7F1A" stroke-width="1.83007" stroke-miterlimit="22.9256" stroke-linecap="round" stroke-linejoin="round"/>
<path d="M50.8693 1.91504V8.77778" stroke="#EF7F1A" stroke-width="1.83007" stroke-miterlimit="22.9256" stroke-linecap="round" stroke-linejoin="round"/>
<path d="M61.3922 11.5229H43.0915V17.9282H61.3922V11.5229Z" stroke="#EF7F1A" stroke-width="0.915033" stroke-miterlimit="22.9256" stroke-linecap="round" stroke-linejoin="round"/>
<path d="M65.9673 24.7908H39.8889V29.8234H65.9673V24.7908Z" stroke="#EF7F1A" stroke-width="0.915033" stroke-miterlimit="22.9256" stroke-linecap="round" stroke-linejoin="round"/>
<path d="M65.9673 33.0261H39.8889V38.0588H65.9673V33.0261Z" stroke="#EF7F1A" stroke-width="0.915033" stroke-miterlimit="22.9256" stroke-linecap="round" stroke-linejoin="round"/>
<path d="M65.9673 41.2615H39.8889V46.2942H65.9673V41.2615Z" stroke="#EF7F1A" stroke-width="0.915033" stroke-miterlimit="22.9256" stroke-linecap="round" stroke-linejoin="round"/>
<path d="M65.9673 49.4967H39.8889V54.5294H65.9673V49.4967Z" stroke="#EF7F1A" stroke-width="0.915033" stroke-miterlimit="22.9256" stroke-linecap="round" stroke-linejoin="round"/>
<path d="M65.9673 57.7321H39.8889V62.7647H65.9673V57.7321Z" stroke="#EF7F1A" stroke-width="0.915033" stroke-miterlimit="22.9256" stroke-linecap="round" stroke-linejoin="round"/>
<path d="M65.9673 65.9673H39.8889V71H65.9673V65.9673Z" stroke="#EF7F1A" stroke-width="0.915033" stroke-miterlimit="22.9256" stroke-linecap="round" stroke-linejoin="round"/>
<path d="M10.1503 10.6079V75.1177" stroke="#EF7F1A" stroke-width="0.915033" stroke-miterlimit="22.9256" stroke-linecap="round" stroke-linejoin="round"/>
<path d="M19.7582 7.40527V75.1177" stroke="#EF7F1A" stroke-width="0.915033" stroke-miterlimit="22.9256" stroke-linecap="round" stroke-linejoin="round"/>
<path d="M29.8235 4.20264V75.1177" stroke="#EF7F1A" stroke-width="0.915033" stroke-miterlimit="22.9256" stroke-linecap="round" stroke-linejoin="round"/>
<path d="M1 20.6731H40.3464" stroke="#EF7F1A" stroke-width="0.915033" stroke-miterlimit="22.9256" stroke-linecap="round" stroke-linejoin="round"/>
<path d="M1 39.4314H40.3464" stroke="#EF7F1A" stroke-width="0.915033" stroke-miterlimit="22.9256" stroke-linecap="round" stroke-linejoin="round"/>
<path d="M1 56.817H40.3464" stroke="#EF7F1A" stroke-width="0.915033" stroke-miterlimit="22.9256" stroke-linecap="round" stroke-linejoin="round"/>
</svg>
